<?xml version="1.0" encoding="UTF-8" standalone="no"?>
<svg
   height="128"
   viewBox="0 0 104 128"
   width="104"
   version="1.1"
   id="svg28"
   sodipodi:docname="app-icon.svg"
   inkscape:version="1.3.2 (091e20ef0f, 2023-11-25)"
   xmlns:inkscape="http://www.inkscape.org/namespaces/inkscape"
   xmlns:sodipodi="http://sodipodi.sourceforge.net/DTD/sodipodi-0.dtd"
   xmlns="http://www.w3.org/2000/svg"
   xmlns:svg="http://www.w3.org/2000/svg">
  <defs
     id="defs28" />
  <sodipodi:namedview
     id="namedview28"
     pagecolor="#ffffff"
     bordercolor="#000000"
     borderopacity="0.25"
     inkscape:showpageshadow="2"
     inkscape:pageopacity="0.0"
     inkscape:pagecheckerboard="0"
     inkscape:deskcolor="#d1d1d1"
     inkscape:zoom="6.2890625"
     inkscape:cx="52.154037"
     inkscape:cy="52.074534"
     inkscape:window-width="1920"
     inkscape:window-height="1011"
     inkscape:window-x="0"
     inkscape:window-y="0"
     inkscape:window-maximized="1"
     inkscape:current-layer="svg28" />
  <linearGradient
     id="a"
     gradientTransform="matrix(0.232143,0,0,0.328947,-20.566925,251.82696)"
     gradientUnits="userSpaceOnUse"
     x1="88.595886"
     x2="536.59589"
     y1="-449.39401"
     y2="-449.39401">
    <stop
       offset="0"
       stop-color="#9a9996"
       id="stop1" />
    <stop
       offset="0.0357143"
       stop-color="#c0bfbc"
       id="stop2" />
    <stop
       offset="0.0714286"
       stop-color="#9a9996"
       id="stop3" />
    <stop
       offset="0.928571"
       stop-color="#9a9996"
       id="stop4" />
    <stop
       offset="0.964286"
       stop-color="#c0bfbc"
       id="stop5" />
    <stop
       offset="1"
       stop-color="#9a9996"
       id="stop6" />
  </linearGradient>
  <linearGradient
     id="b"
     gradientTransform="matrix(0.999976,0,0,0.928572,-11.998713,-169.7143)"
     gradientUnits="userSpaceOnUse"
     x1="28"
     x2="107.50499"
     y1="244.78566"
     y2="223.91165">
    <stop
       offset="0"
       stop-color="#e42c30"
       id="stop7" />
    <stop
       offset="0.422471"
       stop-color="#e01b24"
       id="stop8" />
    <stop
       offset="1"
       stop-color="#f63f8e"
       id="stop9" />
  </linearGradient>
  <linearGradient
     id="c"
     gradientTransform="matrix(-0.999976,0,0,0.914723,115.99826,-166.12099)"
     gradientUnits="userSpaceOnUse"
     x1="28"
     x2="74.351265"
     y1="213.26015"
     y2="255.94756">
    <stop
       offset="0"
       stop-color="#f54981"
       id="stop10" />
    <stop
       offset="1"
       stop-color="#f66151"
       stop-opacity="0.145098"
       id="stop11" />
  </linearGradient>
  <linearGradient
     id="d"
     gradientTransform="matrix(-0.999976,0,0,0.914723,115.99934,-166.12099)"
     gradientUnits="userSpaceOnUse"
     x1="102.79285"
     x2="64.000343"
     y1="214.18112"
     y2="255.94754">
    <stop
       offset="0"
       stop-color="#ff7800"
       stop-opacity="0.72549"
       id="stop12" />
    <stop
       offset="1"
       stop-color="#f3a64a"
       stop-opacity="0.003922"
       id="stop13" />
  </linearGradient>
  <g
     id="g28"
     transform="translate(0,12)">
    <path
       d="m 8,4 h 88 c 4.41797,0 8,3.582031 8,8 v 84 c 0,4.41797 -3.58203,8 -8,8 H 8 C 3.582031,104 0,100.41797 0,96 V 12 C 0,7.582031 3.582031,4 8,4 Z m 0,0"
       fill="url(#a)"
       id="path13"
       style="fill:url(#a)" />
    <path
       d="m 8,0 h 88 c 4.41797,0 8,3.582031 8,8 v 84 c 0,4.41797 -3.58203,8 -8,8 H 8 C 3.582031,100 0,96.41797 0,92 V 8 C 0,3.582031 3.582031,0 8,0 Z m 0,0"
       fill="#deddda"
       id="path14" />
    <path
       d="M 12.777344,8 H 91.22266 C 93.86328,8 96,10.136719 96,12.777344 V 71.222656 C 96,73.863281 93.86328,76 91.22266,76 H 12.777344 C 10.136719,76 8,73.863281 8,71.222656 V 12.777344 C 8,10.136719 10.136719,8 12.777344,8 Z m 0,0"
       fill="#241f31"
       id="path15" />
    <path
       d="m 84,84 h 8 v 8 h -8 z m 0,0"
       fill="#5e5c64"
       id="path16" />
    <path
       d="m 84,82 h 8 v 8 h -8 z m 0,0"
       fill="#9a9996"
       id="path17" />
    <path
       d="m 76,88 c 0,2.21094 -1.789062,4 -4,4 -2.210938,0 -4,-1.78906 -4,-4 0,-2.210938 1.789062,-4 4,-4 2.210938,0 4,1.789062 4,4 z m 0,0"
       fill="#5e5c64"
       id="path18" />
    <path
       d="m 76,86 c 0,2.21094 -1.789062,4 -4,4 -2.210938,0 -4,-1.78906 -4,-4 0,-2.210938 1.789062,-4 4,-4 2.210938,0 4,1.789062 4,4 z m 0,0"
       fill="#9a9996"
       id="path19" />
    <path
       d="m 60,88 c 0,2.21094 -1.789062,4 -4,4 -2.210938,0 -4,-1.78906 -4,-4 0,-2.210938 1.789062,-4 4,-4 2.210938,0 4,1.789062 4,4 z m 0,0"
       fill="#5e5c64"
       id="path20" />
    <path
       d="m 60,86 c 0,2.21094 -1.789062,4 -4,4 -2.210938,0 -4,-1.78906 -4,-4 0,-2.210938 1.789062,-4 4,-4 2.210938,0 4,1.789062 4,4 z m 0,0"
       fill="#9a9996"
       id="path21" />
    <path
       d="m 44,88 c 0,2.21094 -1.789062,4 -4,4 -2.210938,0 -4,-1.78906 -4,-4 0,-2.210938 1.789062,-4 4,-4 2.210938,0 4,1.789062 4,4 z m 0,0"
       fill="#5e5c64"
       id="path22" />
    <path
       d="m 44,86 c 0,2.21094 -1.789062,4 -4,4 -2.210938,0 -4,-1.78906 -4,-4 0,-2.210938 1.789062,-4 4,-4 2.210938,0 4,1.789062 4,4 z m 0,0"
       fill="#9a9996"
       id="path23" />
    <path
       d="m 16,84 h 8 c 2.210938,0 4,1.789062 4,4 0,2.21094 -1.789062,4 -4,4 h -8 c -2.210938,0 -4,-1.78906 -4,-4 0,-2.210938 1.789062,-4 4,-4 z m 0,0"
       fill="#241f31"
       id="path24" />
    <path
       d="m 28,16 h 48 c 6.625,0 12,4.988281 12,11.144531 V 56.855469 C 88,63.011719 82.625,68 76,68 H 28 C 21.375,68 16,63.011719 16,56.855469 V 27.144531 C 16,20.988281 21.375,16 28,16 Z m 0,0"
       fill="url(#b)"
       id="path25"
       style="fill:url(#b)" />
    <path
       d="M 52,42 C 30.9375,41.761719 16,29.503906 16,29.503906 L 16.230469,37.546875 16,57.585938 c -0.03125,2.652343 1.121094,4.699218 2.828125,6.472656 C 21.035156,66.347656 24.253906,68 28,68 h 48 c 6.648438,0 12,-4.808594 12,-10.890625 V 29.964844 c 0,0 -1.503906,1.691406 -4.863281,3.921875 C 77.839844,37.414062 68.261719,42.183594 52,42 Z m 0,0"
       fill="url(#c)"
       id="path26"
       style="fill:url(#c)" />
    <path
       d="M 52,42 C 30.9375,41.761719 16,29.503906 16,29.503906 V 56.761719 C 16,62.839844 21.355469,68 28,68 h 48 c 4.695312,0 8.746094,-2.160156 10.71875,-5.574219 C 87.539062,61.007812 88,59.371094 88,57.585938 V 29.964844 c 0,0 -1.503906,1.691406 -4.859375,3.921875 C 77.84375,37.414062 68.261719,42.183594 52,42 Z m 0,0"
       fill="url(#d)"
       id="path27"
       style="fill:url(#d)" />
    <path
       d="m 53.757812,28.507812 c 0.421876,0.02734 0.847657,0.07422 1.265626,0.140626 3.554687,0.507812 6.765624,2.402343 8.929687,5.273437 4.457031,5.945313 3.203125,14.457031 -2.738281,18.914063 C 55.269531,57.292969 46.757812,56.035156 42.300781,50.09375 42.023438,49.710938 41.871094,49.234375 41.875,48.757812 v -2.25 h 2.25 c 0.71875,0.0039 1.398438,0.339844 1.832031,0.914063 2.996094,3.996094 8.585938,4.757813 12.582031,1.757813 4,-2.996094 4.757813,-8.585938 1.761719,-12.585938 -3.003906,-3.996094 -8.59375,-4.753906 -12.59375,-1.757812 -0.964843,0.726562 -1.730469,1.648437 -2.316406,2.671874 H 48.625 c 1.242188,0 2.25,1.007813 2.25,2.25 v 2.25 h -13.5 v -13.5 h 2.25 c 1.242188,0 2.25,1.007813 2.25,2.25 v 3.796876 c 2.609375,-3.976563 7.128906,-6.277344 11.882812,-6.046876 z m 0,0"
       fill="#f6f5f4"
       id="path28" />
  </g>
</svg>
