<svg width="16" xmlns="http://www.w3.org/2000/svg" height="16" fill="none"><g data-testid="Icons / Watch Later"><g class="fills"><rect rx="0" ry="0" width="16" height="16" class="frame-background"/></g><g class="frame-children"><path d="M7.95.607a7.491 7.491 0 0 0-5.203 2.15 7.492 7.492 0 0 0-.078 10.59 7.492 7.492 0 0 0 10.588.076 7.492 7.492 0 0 0 2.227-5.252h-1.967a5.505 5.505 0 0 1-1.645 3.846 5.507 5.507 0 0 1-7.797-.057 5.507 5.507 0 0 1 .057-7.797 5.51 5.51 0 0 1 7.932.2h2.427a7.47 7.47 0 0 0-1.156-1.526A7.489 7.489 0 0 0 7.95.607Z" style="fill: rgb(255, 255, 255); fill-opacity: 1;" class="fills" data-testid="Path"/><path d="M7.615 3.558a.499.499 0 0 0-.068.287l-.028 3.756-2.342-.017a.501.501 0 0 0-.536.766.498.498 0 0 0 .528.206l2.829.021a.5.5 0 0 0 .489-.482l.031-4.243a.5.5 0 0 0-.903-.294ZM15.028.424v5.657H9.371Z" style="fill: rgb(255, 255, 255); fill-opacity: 1;" class="fills" data-testid="Path"/></g></g></svg>