<svg width="16" xmlns="http://www.w3.org/2000/svg" height="16" fill="none"><g data-testid="Icons / Discover"><g class="fills"><rect rx="0" ry="0" width="16" height="16" class="frame-background"/></g><g class="frame-children"><path d="M8 0C3.594 0 .004 3.594.004 8c0 4.406 3.59 8 7.996 8 4.406 0 7.996-3.594 7.996-8 0-4.406-3.59-8-7.996-8Zm0 2a5.983 5.983 0 0 1 5.996 6c0 3.324-2.672 6-5.996 6a5.983 5.983 0 0 1-5.996-6c0-3.324 2.672-6 5.996-6Zm3.406 2a.66.66 0 0 0-.289.059L6.609 6.121a1.006 1.006 0 0 0-.496.492l-2.058 4.512a.615.615 0 0 0 .816.816l4.512-2.058c.219-.102.394-.278.492-.496l2.063-4.508A.623.623 0 0 0 11.406 4Zm-3.41 3a1.002 1.002 0 0 1 .703 1.707.996.996 0 1 1-1.406-1.414c.191-.191.449-.293.703-.293Zm0 0" style="fill: rgb(255, 255, 255); fill-opacity: 1;" class="fills" data-testid="Path"/></g></g></svg>