<svg width="16" xmlns="http://www.w3.org/2000/svg" height="16" fill="none"><g data-testid="Icons / Trends"><g class="fills"><rect rx="0" ry="0" width="16" height="16" class="frame-background"/></g><g class="frame-children"><path d="M9.18 0c.035 4.887-.653 6.188-3.043 6.645-1.086.207-2.508-2.231-2.395-2.293-.207-.137-1.941 4.211-1.722 6.613.187 2.062.847 2.992 1.543 3.762.792.875 2.222 1.23 3.468 1.265 1.946.059 4.274-.32 5.543-1.66 1.5-1.578 1.684-4.191 1.164-6.168C13.035 5.504 9.309.055 9.18 0Zm1.008 6.637c.554 2.109 1 3.125.246 4.578-.321.617-1.204 1.336-2.211 1.535-.91.18-2.063-.105-2.438-.492-.402-.414-.89-1.211-.742-2.871-.039.023.758 1.113 2.051.793 1.394-.348 3.105-1.7 3.094-3.543Zm0 0" style="fill: rgb(255, 255, 255); fill-opacity: 1;" class="fills" data-testid="Path"/></g></g></svg>