<svg width="16" xmlns="http://www.w3.org/2000/svg" height="16" fill="none"><g data-testid="Icons / History"><g class="fills"><rect rx="0" ry="0" width="16" height="16" class="frame-background"/></g><g class="frame-children"><path d="M8.001.514A7.49 7.49 0 0 0 .514 8a7.49 7.49 0 0 0 7.487 7.486A7.49 7.49 0 0 0 15.486 8 7.49 7.49 0 0 0 8.001.514Zm0 1.972A5.511 5.511 0 0 1 13.514 8 5.51 5.51 0 0 1 8 13.514 5.511 5.511 0 0 1 2.486 8a5.508 5.508 0 0 1 5.515-5.514Z" color="#000" font-weight="400" font-family="Sans" overflow="visible" style="line-height: normal; text-indent: 0px; text-align: start; text-decoration-line: none; text-transform: none; marker: none; fill: rgb(255, 255, 255); fill-opacity: 1;" class="fills" data-testid="Path"/><path d="M10.907 4.5a.496.496 0 0 0-.25.157L8.001 7.313 6.343 5.657a.498.498 0 1 0-.686.687l2 2a.5.5 0 0 0 .686 0l3-3a.501.501 0 0 0-.436-.844Z" color="#000" font-weight="400" font-family="Sans" overflow="visible" style="line-height: normal; text-indent: 0px; text-align: start; text-decoration-line: none; text-transform: none; marker: none; fill: rgb(255, 255, 255); fill-opacity: 1;" class="fills" data-testid="Path"/></g></g></svg>