<svg width="16" xmlns="http://www.w3.org/2000/svg" height="16" fill="none"><g data-testid="Icons / Search"><g class="fills"><rect rx="0" ry="0" width="16" height="16" class="frame-background"/></g><g style="opacity: 1;" class="frame-children"><path d="M6.5 0C2.922 0 0 2.922 0 6.5S2.922 13 6.5 13c1.43 0 2.754-.469 3.828-1.258l2.945 2.946c.957.937 2.364-.5 1.407-1.438l-2.93-2.93A6.453 6.453 0 0 0 13 6.5C13 2.922 10.078 0 6.5 0Zm0 2C8.996 2 11 4.004 11 6.5S8.996 11 6.5 11A4.486 4.486 0 0 1 2 6.5C2 4.004 4.004 2 6.5 2Zm0 0" style="fill: rgb(255, 255, 255); fill-opacity: 1;" class="fills" data-testid="Path"/></g></g></svg>